<svg width="98" height="30" viewBox="0 0 98 30" fill="none" xmlns="http://www.w3.org/2000/svg">
<path d="M27.7257 9.12C27.331 9.12 26.987 9.06267 26.6937 8.948C26.403 8.83067 26.1617 8.67867 25.9697 8.492C25.7804 8.30267 25.6364 8.1 25.5377 7.884L26.1697 7.492C26.2337 7.66 26.3324 7.816 26.4657 7.96C26.6017 8.104 26.775 8.22 26.9857 8.308C27.199 8.396 27.455 8.44 27.7537 8.44C28.0577 8.44 28.3124 8.39333 28.5177 8.3C28.723 8.204 28.8764 8.07467 28.9777 7.912C29.0817 7.74667 29.1337 7.55733 29.1337 7.344C29.1337 7.10133 29.0737 6.91467 28.9537 6.784C28.8337 6.65067 28.6724 6.55733 28.4697 6.504C28.2697 6.448 28.0484 6.416 27.8057 6.408C27.6164 6.4 27.4804 6.39467 27.3977 6.392C27.315 6.38933 27.259 6.388 27.2297 6.388C27.203 6.388 27.1777 6.388 27.1537 6.388V5.708C27.1777 5.708 27.2284 5.708 27.3057 5.708C27.383 5.708 27.4644 5.708 27.5497 5.708C27.635 5.70533 27.703 5.70267 27.7537 5.7C28.111 5.68133 28.395 5.59067 28.6057 5.428C28.8164 5.26267 28.9217 5.036 28.9217 4.748C28.9217 4.44933 28.8137 4.216 28.5977 4.048C28.3844 3.88 28.1057 3.796 27.7617 3.796C27.4364 3.796 27.159 3.872 26.9297 4.024C26.703 4.176 26.5217 4.372 26.3857 4.612L25.8377 4.144C26.0244 3.848 26.283 3.604 26.6137 3.412C26.947 3.21733 27.3364 3.12 27.7817 3.12C28.027 3.12 28.263 3.15333 28.4897 3.22C28.719 3.284 28.9217 3.38267 29.0977 3.516C29.2764 3.64667 29.4177 3.81333 29.5217 4.016C29.6257 4.216 29.6777 4.45333 29.6777 4.728C29.6777 5.024 29.615 5.28667 29.4897 5.516C29.3644 5.74533 29.2004 5.92267 28.9977 6.048C29.2777 6.14133 29.4964 6.296 29.6537 6.512C29.811 6.728 29.8897 7.008 29.8897 7.352C29.8897 7.712 29.7977 8.024 29.6137 8.288C29.4324 8.552 29.179 8.75733 28.8537 8.904C28.5284 9.048 28.1524 9.12 27.7257 9.12ZM31.9598 9.12C31.6371 9.12 31.3664 9.06133 31.1478 8.944C30.9318 8.824 30.7678 8.66667 30.6558 8.472C30.5464 8.27733 30.4918 8.064 30.4918 7.832C30.4918 7.60533 30.5344 7.40933 30.6198 7.244C30.7078 7.076 30.8304 6.93733 30.9878 6.828C31.1451 6.716 31.3331 6.628 31.5518 6.564C31.7571 6.508 31.9864 6.46 32.2398 6.42C32.4958 6.37733 32.7544 6.33867 33.0158 6.304C33.2771 6.26933 33.5211 6.236 33.7478 6.204L33.4918 6.352C33.4998 5.968 33.4224 5.684 33.2598 5.5C33.0998 5.316 32.8224 5.224 32.4278 5.224C32.1664 5.224 31.9371 5.284 31.7398 5.404C31.5451 5.52133 31.4078 5.71333 31.3278 5.98L30.6518 5.776C30.7558 5.39733 30.9571 5.1 31.2558 4.884C31.5544 4.668 31.9478 4.56 32.4358 4.56C32.8278 4.56 33.1638 4.63067 33.4438 4.772C33.7264 4.91067 33.9291 5.12133 34.0518 5.404C34.1131 5.53733 34.1518 5.68267 34.1678 5.84C34.1838 5.99467 34.1918 6.15733 34.1918 6.328V9H33.5598V7.964L33.7078 8.06C33.5451 8.40933 33.3171 8.67333 33.0238 8.852C32.7331 9.03067 32.3784 9.12 31.9598 9.12ZM32.0678 8.524C32.3238 8.524 32.5451 8.47867 32.7318 8.388C32.9211 8.29467 33.0731 8.17333 33.1878 8.024C33.3024 7.872 33.3771 7.70667 33.4118 7.528C33.4518 7.39467 33.4731 7.24667 33.4758 7.084C33.4811 6.91867 33.4838 6.792 33.4838 6.704L33.7318 6.812C33.4998 6.844 33.2718 6.87467 33.0478 6.904C32.8238 6.93333 32.6118 6.96533 32.4118 7C32.2118 7.032 32.0318 7.07067 31.8718 7.116C31.7544 7.15333 31.6438 7.20133 31.5398 7.26C31.4384 7.31867 31.3558 7.39467 31.2918 7.488C31.2304 7.57867 31.1998 7.692 31.1998 7.828C31.1998 7.94533 31.2291 8.05733 31.2878 8.164C31.3491 8.27067 31.4424 8.35733 31.5678 8.424C31.6958 8.49067 31.8624 8.524 32.0678 8.524ZM35.2318 9V4.68H38.2318V5.356H35.9438V9H35.2318ZM40.9736 9.12C40.5682 9.12 40.2269 9.02 39.9496 8.82C39.6722 8.61733 39.4616 8.344 39.3176 8C39.1762 7.65333 39.1056 7.26533 39.1056 6.836C39.1056 6.40133 39.1762 6.012 39.3176 5.668C39.4616 5.324 39.6722 5.05333 39.9496 4.856C40.2296 4.65867 40.5722 4.56 40.9776 4.56C41.3776 4.56 41.7216 4.66 42.0096 4.86C42.3002 5.05733 42.5229 5.328 42.6776 5.672C42.8322 6.016 42.9096 6.404 42.9096 6.836C42.9096 7.268 42.8322 7.656 42.6776 8C42.5229 8.344 42.3002 8.61733 42.0096 8.82C41.7216 9.02 41.3762 9.12 40.9736 9.12ZM38.9856 10.92V4.68H39.6216V7.86H39.7016V10.92H38.9856ZM40.8856 8.468C41.1709 8.468 41.4069 8.396 41.5936 8.252C41.7802 8.108 41.9202 7.91333 42.0136 7.668C42.1069 7.42 42.1536 7.14267 42.1536 6.836C42.1536 6.532 42.1069 6.25733 42.0136 6.012C41.9229 5.76667 41.7816 5.572 41.5896 5.428C41.4002 5.284 41.1589 5.212 40.8656 5.212C40.5856 5.212 40.3536 5.28133 40.1696 5.42C39.9856 5.556 39.8482 5.74667 39.7576 5.992C39.6669 6.23467 39.6216 6.516 39.6216 6.836C39.6216 7.15067 39.6656 7.432 39.7536 7.68C39.8442 7.92533 39.9829 8.11867 40.1696 8.26C40.3562 8.39867 40.5949 8.468 40.8856 8.468ZM44.2302 10.92L45.0662 8.648L45.0782 9.32L43.1902 4.68H43.9382L45.4182 8.412H45.1622L46.5502 4.68H47.2742L44.9222 10.92H44.2302ZM49.4829 9.12C49.0562 9.12 48.6789 9.028 48.3509 8.844C48.0229 8.65733 47.7642 8.40133 47.5749 8.076L48.1429 7.708C48.3002 7.94533 48.4882 8.128 48.7069 8.256C48.9255 8.38133 49.1749 8.444 49.4549 8.444C49.7482 8.444 49.9815 8.37733 50.1549 8.244C50.3282 8.108 50.4149 7.92533 50.4149 7.696C50.4149 7.52533 50.3722 7.39467 50.2869 7.304C50.2015 7.21333 50.0789 7.15067 49.9189 7.116C49.7589 7.08133 49.5682 7.064 49.3469 7.064H48.8989V6.476H49.3429C49.6229 6.476 49.8509 6.43067 50.0269 6.34C50.2029 6.24933 50.2909 6.09467 50.2909 5.876C50.2909 5.652 50.2082 5.48933 50.0429 5.388C49.8802 5.284 49.6855 5.232 49.4589 5.232C49.2189 5.232 48.9895 5.28267 48.7709 5.384C48.5522 5.48267 48.3642 5.608 48.2069 5.76L47.7749 5.276C47.9989 5.04667 48.2562 4.87067 48.5469 4.748C48.8402 4.62267 49.1589 4.56 49.5029 4.56C49.7802 4.56 50.0335 4.60933 50.2629 4.708C50.4949 4.804 50.6789 4.94667 50.8149 5.136C50.9535 5.32267 51.0229 5.55067 51.0229 5.82C51.0229 6.04933 50.9695 6.25333 50.8629 6.432C50.7562 6.61067 50.5989 6.76667 50.3909 6.9L50.3629 6.648C50.5389 6.69067 50.6842 6.76933 50.7989 6.884C50.9162 6.996 51.0029 7.12933 51.0589 7.284C51.1149 7.43867 51.1429 7.6 51.1429 7.768C51.1429 8.05067 51.0682 8.29333 50.9189 8.496C50.7722 8.696 50.5735 8.85067 50.3229 8.96C50.0722 9.06667 49.7922 9.12 49.4829 9.12ZM55.5568 4.68V9H54.8688V5.816L52.6048 9H52.0168V4.68H52.7048V7.82L54.9728 4.68H55.5568ZM57.8211 9V5.328H56.3171V4.68H60.0371V5.328H58.5331V9H57.8211ZM62.6663 9.12C62.2423 9.12 61.8716 9.02667 61.5543 8.84C61.2396 8.65067 60.9943 8.388 60.8183 8.052C60.6423 7.71333 60.5543 7.31867 60.5543 6.868C60.5543 6.396 60.6409 5.988 60.8143 5.644C60.9876 5.29733 61.2289 5.03067 61.5383 4.844C61.8503 4.65467 62.2156 4.56 62.6343 4.56C63.0689 4.56 63.4383 4.66 63.7423 4.86C64.0489 5.06 64.2783 5.34533 64.4303 5.716C64.5849 6.08667 64.6516 6.528 64.6303 7.04H63.9103V6.784C63.9023 6.25333 63.7943 5.85733 63.5863 5.596C63.3783 5.332 63.0689 5.2 62.6583 5.2C62.2183 5.2 61.8836 5.34133 61.6543 5.624C61.4249 5.90667 61.3103 6.312 61.3103 6.84C61.3103 7.34933 61.4249 7.744 61.6543 8.024C61.8836 8.304 62.2103 8.444 62.6343 8.444C62.9196 8.444 63.1676 8.37867 63.3783 8.248C63.5889 8.11733 63.7543 7.92933 63.8743 7.684L64.5583 7.92C64.3903 8.30133 64.1369 8.59733 63.7983 8.808C63.4623 9.016 63.0849 9.12 62.6663 9.12ZM61.0703 7.04V6.468H64.2623V7.04H61.0703ZM67.1184 9V4.68H68.9584C69.0677 4.68 69.185 4.68667 69.3104 4.7C69.4384 4.71067 69.5544 4.73067 69.6584 4.76C69.8904 4.82133 70.081 4.948 70.2304 5.14C70.3824 5.32933 70.4584 5.56933 70.4584 5.86C70.4584 6.02267 70.433 6.164 70.3824 6.284C70.3344 6.404 70.265 6.508 70.1744 6.596C70.1344 6.636 70.0904 6.672 70.0424 6.704C69.9944 6.736 69.9464 6.76133 69.8984 6.78C69.9917 6.796 70.0864 6.832 70.1824 6.888C70.3344 6.97067 70.453 7.08667 70.5384 7.236C70.6264 7.38533 70.6704 7.576 70.6704 7.808C70.6704 8.10133 70.5997 8.344 70.4584 8.536C70.317 8.72533 70.1224 8.856 69.8744 8.928C69.7704 8.95733 69.6557 8.97733 69.5304 8.988C69.405 8.996 69.2837 9 69.1664 9H67.1184ZM67.8384 8.42H69.1264C69.1824 8.42 69.249 8.41467 69.3264 8.404C69.4064 8.39333 69.477 8.38 69.5384 8.364C69.677 8.324 69.777 8.24933 69.8384 8.14C69.9024 8.03067 69.9344 7.912 69.9344 7.784C69.9344 7.61333 69.8864 7.47467 69.7904 7.368C69.697 7.26133 69.573 7.19467 69.4184 7.168C69.3624 7.152 69.301 7.14267 69.2344 7.14C69.1704 7.13733 69.113 7.136 69.0624 7.136H67.8384V8.42ZM67.8384 6.548H68.9104C68.985 6.548 69.0637 6.544 69.1464 6.536C69.229 6.52533 69.301 6.508 69.3624 6.484C69.485 6.43867 69.5744 6.364 69.6304 6.26C69.689 6.15333 69.7184 6.03733 69.7184 5.912C69.7184 5.77333 69.6864 5.652 69.6224 5.548C69.561 5.44133 69.4664 5.368 69.3384 5.328C69.253 5.296 69.157 5.27867 69.0504 5.276C68.9464 5.27067 68.8797 5.268 68.8504 5.268H67.8384V6.548Z" fill="#FEFDF8" fill-opacity="0.5"/>
<path d="M49.2025 19.9312C47.2156 19.9312 45.5925 21.3914 45.5925 23.4062C45.5925 25.4047 47.2156 26.8803 49.2025 26.8803C51.1936 26.8803 52.8167 25.4047 52.8167 23.4062C52.8167 21.3914 51.1936 19.9312 49.2025 19.9312ZM49.2025 25.5119C48.1123 25.5119 47.1744 24.6429 47.1744 23.4062C47.1744 22.1532 48.1123 21.2995 49.2025 21.2995C50.2927 21.2995 51.2348 22.1532 51.2348 23.4062C51.2348 24.6429 50.2927 25.5119 49.2025 25.5119ZM41.3258 19.9312C39.3347 19.9312 37.7158 21.3914 37.7158 23.4062C37.7158 25.4047 39.3347 26.8803 41.3258 26.8803C43.3159 26.8803 44.9358 25.4047 44.9358 23.4062C44.9358 21.3914 43.3159 19.9312 41.3258 19.9312ZM41.3258 25.5119C40.2346 25.5119 39.2935 24.6429 39.2935 23.4062C39.2935 22.1532 40.2346 21.2995 41.3258 21.2995C42.416 21.2995 43.3539 22.1532 43.3539 23.4062C43.3539 24.6429 42.416 25.5119 41.3258 25.5119ZM31.9529 20.9962V22.4729H35.6041C35.4973 23.298 35.2118 23.9046 34.7741 24.3273C34.2411 24.8379 33.4111 25.4047 31.9529 25.4047C29.7059 25.4047 27.9463 23.6534 27.9463 21.4834C27.9463 19.3133 29.7059 17.562 31.9529 17.562C33.1679 17.562 34.0519 18.0205 34.7043 18.6149L35.7818 17.5743C34.8692 16.7328 33.6553 16.0864 31.9529 16.0864C28.8716 16.0864 26.282 18.5076 26.282 21.4834C26.282 24.4591 28.8716 26.8803 31.9529 26.8803C33.6183 26.8803 34.8692 26.3534 35.8526 25.3649C36.8603 24.3917 37.1744 23.0233 37.1744 21.9184C37.1744 21.5753 37.1448 21.2597 37.0919 20.9962H31.9529ZM70.2799 22.141C69.9828 21.3639 69.066 19.9312 67.1986 19.9312C65.3481 19.9312 63.8075 21.3394 63.8075 23.4062C63.8075 25.3526 65.3323 26.8803 67.3762 26.8803C69.029 26.8803 69.9828 25.9071 70.3751 25.3404L69.1485 24.551C68.7393 25.129 68.182 25.5119 67.3762 25.5119C66.5758 25.5119 66.0016 25.1576 65.6336 24.4591L70.4459 22.5362L70.2799 22.141ZM65.3735 23.298C65.3323 21.9582 66.451 21.272 67.2525 21.272C67.8806 21.272 68.4136 21.5753 68.5912 22.0093L65.3735 23.298ZM61.4621 26.6689H63.044V16.4571H61.4621V26.6689ZM58.8715 20.7052H58.8186C58.4633 20.2988 57.7855 19.9312 56.9269 19.9312C55.1251 19.9312 53.4776 21.4588 53.4776 23.4175C53.4776 25.3649 55.1251 26.8803 56.9269 26.8803C57.7855 26.8803 58.4633 26.5096 58.8186 26.0909H58.8715V26.5893C58.8715 27.9178 58.1366 28.6316 56.9512 28.6316C55.9847 28.6316 55.3852 27.9576 55.1377 27.3909L53.762 27.9454C54.1586 28.8665 55.2086 30 56.9512 30C58.8059 30 60.3709 28.9461 60.3709 26.382V20.1425H58.8715V20.7052ZM57.0622 25.5119C55.972 25.5119 55.0595 24.6306 55.0595 23.4175C55.0595 22.1931 55.972 21.2995 57.0622 21.2995C58.1366 21.2995 58.9836 22.1931 58.9836 23.4175C58.9836 24.6306 58.1366 25.5119 57.0622 25.5119ZM77.686 16.4571H73.9026V26.6689H75.4803V22.7997H77.686C79.4382 22.7997 81.1565 21.5753 81.1565 19.6279C81.1565 17.6815 79.4339 16.4571 77.686 16.4571ZM77.7273 21.3792H75.4803V17.8776H77.7273C78.9052 17.8776 79.5777 18.8222 79.5777 19.6279C79.5777 20.4183 78.9052 21.3792 77.7273 21.3792ZM87.4798 19.9118C86.3399 19.9118 85.1545 20.3978 84.6671 21.4752L86.0671 22.0419C86.3684 21.4752 86.9225 21.2914 87.5083 21.2914C88.3268 21.2914 89.1568 21.7662 89.1695 22.6046V22.7118C88.884 22.5525 88.2729 22.3166 87.521 22.3166C86.0132 22.3166 84.4767 23.1183 84.4767 24.6143C84.4767 25.9827 85.7118 26.864 87.1002 26.864C88.1618 26.864 88.7476 26.4014 89.1156 25.8632H89.1695V26.6526H90.6933V22.7353C90.6933 20.9248 89.2933 19.9118 87.4798 19.9118ZM87.2895 25.5078C86.7734 25.5078 86.0544 25.2607 86.0544 24.6429C86.0544 23.8525 86.9511 23.5492 87.7272 23.5492C88.4219 23.5492 88.7476 23.6973 89.1695 23.8923C89.0458 24.8379 88.2031 25.5078 87.2895 25.5078ZM96.2447 20.1354L94.4312 24.5622H94.3773L92.5025 20.1354H90.8011L93.6181 26.3217L92.0108 29.7641H93.6593L98 20.1354H96.2447ZM82.0235 26.6689H83.6054V16.4571H82.0235V26.6689Z" fill="#FEFDF8"/>
<path d="M0.3923 8.31923C0.143808 8.57044 0 8.96155 0 9.46806V27.5348C0 28.0413 0.143808 28.4324 0.3923 28.6836L0.45363 28.7388L10.9368 18.6189V18.3799L0.45363 8.26L0.3923 8.31923Z" fill="#FEFDF8"/>
<path d="M14.4273 21.9937L10.9368 18.6186V18.3797L14.4315 15.0047L14.5098 15.0486L18.6485 17.3228C19.8296 17.9682 19.8296 19.0302 18.6485 19.6797L14.5098 21.9497L14.4273 21.9937Z" fill="#FEFDF8"/>
<path d="M14.5099 21.9494L10.9369 18.4988L0.392334 28.6831C0.784635 29.0813 1.42437 29.1293 2.15187 28.7311L14.5099 21.9494Z" fill="#FEFDF8"/>
<path d="M14.5099 15.0489L2.15187 8.26728C1.42437 7.8731 0.784635 7.9211 0.392334 8.31936L10.9369 18.4995L14.5099 15.0489Z" fill="#FEFDF8"/>
</svg>
