<svg width="98" height="30" viewBox="0 0 98 30" fill="none" xmlns="http://www.w3.org/2000/svg">
<path d="M15.5921 16.5871C15.566 13.8213 17.9656 12.4758 18.0753 12.4131C16.7163 10.5227 14.61 10.2644 13.8697 10.2438C12.1006 10.0662 10.3846 11.2538 9.48337 11.2538C8.56418 11.2538 7.1764 10.261 5.6807 10.2901C3.75598 10.3184 1.95538 11.3817 0.967841 13.0327C-1.0702 16.3992 0.449787 21.3463 2.40239 24.0674C3.37913 25.4001 4.52047 26.8881 6.01438 26.8358C7.47591 26.7783 8.02184 25.9467 9.78557 25.9467C11.5331 25.9467 12.0458 26.8358 13.5693 26.8023C15.1379 26.7783 16.1254 25.4636 17.068 24.1189C18.1968 22.5914 18.6501 21.0871 18.668 21.0099C18.6312 20.9979 15.6218 19.9021 15.5921 16.5871Z" fill="#FEFDF8"/>
<path d="M12.714 8.45373C13.5001 7.51579 14.0379 6.23975 13.8886 4.94482C12.7509 4.99288 11.328 5.69569 10.5087 6.61303C9.78377 7.42139 9.1362 8.74635 9.30349 9.99236C10.5815 10.0833 11.8938 9.37708 12.714 8.45373Z" fill="#FEFDF8"/>
<path d="M36.3811 26.6446H34.3386L33.2197 23.2902H29.3307L28.2649 26.6446H26.2764L30.1294 15.2246H32.5092L36.3811 26.6446ZM32.8825 21.8829L31.8706 18.9008C31.7636 18.5962 31.563 17.8788 31.2671 16.7495H31.2312C31.1133 17.2352 30.9236 17.9526 30.6627 18.9008L29.6689 21.8829H32.8825Z" fill="#FEFDF8"/>
<path d="M46.2898 22.4263C46.2898 23.8268 45.8931 24.9338 45.0998 25.7464C44.3893 26.4698 43.507 26.8311 42.4538 26.8311C41.317 26.8311 40.5003 26.4415 40.0029 25.6623H39.967V30.0002H38.0494V21.1211C38.0494 20.2407 38.0252 19.337 37.9784 18.4103H39.6648L39.7718 19.7155H39.8078C40.4472 18.7321 41.4177 18.2412 42.72 18.2412C43.7382 18.2412 44.5881 18.6248 45.268 19.3928C45.9498 20.1617 46.2898 21.1726 46.2898 22.4263ZM44.3363 22.4933C44.3363 21.6918 44.1474 21.031 43.7678 20.511C43.3532 19.9686 42.7965 19.6975 42.0985 19.6975C41.6255 19.6975 41.1955 19.8485 40.8115 20.1463C40.4266 20.4466 40.1747 20.8388 40.0569 21.3245C39.9975 21.551 39.9679 21.7364 39.9679 21.8823V23.2553C39.9679 23.8543 40.1603 24.3597 40.5453 24.7725C40.9302 25.1852 41.4303 25.3912 42.0455 25.3912C42.7677 25.3912 43.3298 25.1251 43.7319 24.5948C44.1348 24.0636 44.3363 23.3634 44.3363 22.4933Z" fill="#FEFDF8"/>
<path d="M56.2165 22.4263C56.2165 23.8268 55.8198 24.9338 55.0257 25.7464C54.316 26.4698 53.4337 26.8311 52.3805 26.8311C51.2437 26.8311 50.427 26.4415 49.9306 25.6623H49.8946V30.0002H47.9771V21.1211C47.9771 20.2407 47.9528 19.337 47.906 18.4103H49.5924L49.6994 19.7155H49.7354C50.374 18.7321 51.3444 18.2412 52.6477 18.2412C53.6649 18.2412 54.5148 18.6248 55.1966 19.3928C55.8756 20.1617 56.2165 21.1726 56.2165 22.4263ZM54.263 22.4933C54.263 21.6918 54.0732 21.031 53.6936 20.511C53.279 19.9686 52.7241 19.6975 52.0253 19.6975C51.5513 19.6975 51.1223 19.8485 50.7373 20.1463C50.3524 20.4466 50.1014 20.8388 49.9836 21.3245C49.9252 21.551 49.8946 21.7364 49.8946 21.8823V23.2553C49.8946 23.8543 50.0871 24.3597 50.4702 24.7725C50.8551 25.1844 51.3552 25.3912 51.9722 25.3912C52.6944 25.3912 53.2565 25.1251 53.6586 24.5948C54.0615 24.0636 54.263 23.3634 54.263 22.4933Z" fill="#FEFDF8"/>
<path d="M67.3151 23.4419C67.3151 24.4133 66.9616 25.2037 66.252 25.8138C65.4722 26.4806 64.3867 26.8135 62.9917 26.8135C61.7037 26.8135 60.6712 26.5767 59.8896 26.1021L60.334 24.5772C61.1758 25.0629 62.0995 25.3067 63.1059 25.3067C63.8281 25.3067 64.3903 25.1505 64.7941 24.8398C65.1961 24.5292 65.3967 24.1121 65.3967 23.5921C65.3967 23.1287 65.2312 22.7383 64.8993 22.4216C64.5692 22.105 64.0179 21.8106 63.248 21.5386C61.1524 20.7929 60.1055 19.7005 60.1055 18.264C60.1055 17.3252 60.4725 16.5554 61.2073 15.9565C61.9394 15.3566 62.9161 15.0571 64.1375 15.0571C65.2267 15.0571 66.1315 15.2382 66.8537 15.5995L66.3743 17.0909C65.6998 16.7408 64.9371 16.5657 64.0836 16.5657C63.409 16.5657 62.882 16.7245 62.5042 17.0403C62.1849 17.3226 62.0248 17.6667 62.0248 18.0743C62.0248 18.5257 62.2074 18.899 62.5744 19.1925C62.8936 19.4636 63.4738 19.7571 64.3156 20.0738C65.3454 20.4694 66.1018 20.9319 66.5884 21.4622C67.0732 21.9908 67.3151 22.6525 67.3151 23.4419Z" fill="#FEFDF8"/>
<path d="M73.655 19.7832H71.5414V23.7812C71.5414 24.7981 71.9138 25.3061 72.6603 25.3061C73.003 25.3061 73.2872 25.2778 73.512 25.2212L73.5651 26.6105C73.1873 26.7452 72.69 26.813 72.0739 26.813C71.3166 26.813 70.7248 26.5925 70.2976 26.1523C69.8721 25.7112 69.6581 24.9715 69.6581 23.9323V19.7815H68.3989V18.4085H69.6581V16.9007L71.5414 16.3584V18.4085H73.655V19.7832Z" fill="#FEFDF8"/>
<path d="M83.1914 22.4594C83.1914 23.7252 82.8118 24.7644 82.0545 25.577C81.2604 26.4137 80.2063 26.8307 78.8922 26.8307C77.6259 26.8307 76.6177 26.43 75.8658 25.6285C75.1139 24.827 74.7379 23.8153 74.7379 22.5959C74.7379 21.3198 75.1247 20.2746 75.9008 19.462C76.6752 18.6485 77.7203 18.2417 79.0344 18.2417C80.3007 18.2417 81.3197 18.6424 82.0887 19.4448C82.8244 20.2231 83.1914 21.228 83.1914 22.4594ZM81.2019 22.5186C81.2019 21.7592 81.0319 21.1079 80.6874 20.5647C80.2854 19.9073 79.7107 19.5795 78.966 19.5795C78.1952 19.5795 77.6097 19.9082 77.2077 20.5647C76.8632 21.1087 76.6932 21.7703 76.6932 22.553C76.6932 23.3124 76.8632 23.9637 77.2077 24.5061C77.6223 25.1634 78.2015 25.4912 78.9489 25.4912C79.681 25.4912 80.2557 25.1565 80.6704 24.4889C81.0238 23.9354 81.2019 23.2772 81.2019 22.5186Z" fill="#FEFDF8"/>
<path d="M89.4242 20.0193C89.2344 19.9858 89.032 19.9686 88.8198 19.9686C88.1452 19.9686 87.6236 20.2115 87.2566 20.698C86.9373 21.1271 86.7772 21.6694 86.7772 22.3242V26.6449H84.8606L84.8786 21.0035C84.8786 20.0544 84.8543 19.1903 84.8066 18.4111H86.4768L86.547 19.9867H86.6001C86.8024 19.4452 87.1217 19.0092 87.5588 18.6823C87.986 18.388 88.4474 18.2412 88.9448 18.2412C89.122 18.2412 89.2821 18.2532 89.4242 18.2747V20.0193Z" fill="#FEFDF8"/>
<path d="M98 22.1378C98 22.4656 97.9776 22.7419 97.9299 22.9676H92.1773C92.1998 23.7811 92.4777 24.4033 93.012 24.8323C93.4967 25.2159 94.1236 25.4081 94.8935 25.4081C95.7452 25.4081 96.5223 25.2786 97.2212 25.0186L97.5216 26.2886C96.7049 26.6284 95.7407 26.7975 94.6282 26.7975C93.2899 26.7975 92.2394 26.4216 91.4749 25.6707C90.7122 24.9199 90.33 23.9116 90.33 22.6467C90.33 21.405 90.6852 20.3709 91.3966 19.5463C92.1414 18.6658 93.1478 18.2256 94.4141 18.2256C95.658 18.2256 96.5997 18.6658 97.2391 19.5463C97.7455 20.2456 98 21.1106 98 22.1378ZM96.1716 21.6633C96.1842 21.1209 96.0591 20.6524 95.7992 20.2568C95.4673 19.7479 94.9574 19.4939 94.2711 19.4939C93.6442 19.4939 93.1343 19.7419 92.7448 20.2396C92.4256 20.6352 92.2358 21.1098 92.1773 21.6624H96.1716V21.6633Z" fill="#FEFDF8"/>
<path d="M28.7444 9.12C28.3497 9.12 28.0057 9.06267 27.7124 8.948C27.4217 8.83067 27.1804 8.67867 26.9884 8.492C26.799 8.30267 26.655 8.1 26.5564 7.884L27.1884 7.492C27.2524 7.66 27.351 7.816 27.4844 7.96C27.6204 8.104 27.7937 8.22 28.0044 8.308C28.2177 8.396 28.4737 8.44 28.7724 8.44C29.0764 8.44 29.331 8.39333 29.5364 8.3C29.7417 8.204 29.895 8.07467 29.9964 7.912C30.1004 7.74667 30.1524 7.55733 30.1524 7.344C30.1524 7.10133 30.0924 6.91467 29.9724 6.784C29.8524 6.65067 29.691 6.55733 29.4884 6.504C29.2884 6.448 29.067 6.416 28.8244 6.408C28.635 6.4 28.499 6.39467 28.4164 6.392C28.3337 6.38933 28.2777 6.388 28.2484 6.388C28.2217 6.388 28.1964 6.388 28.1724 6.388V5.708C28.1964 5.708 28.247 5.708 28.3244 5.708C28.4017 5.708 28.483 5.708 28.5684 5.708C28.6537 5.70533 28.7217 5.70267 28.7724 5.7C29.1297 5.68133 29.4137 5.59067 29.6244 5.428C29.835 5.26267 29.9404 5.036 29.9404 4.748C29.9404 4.44933 29.8324 4.216 29.6164 4.048C29.403 3.88 29.1244 3.796 28.7804 3.796C28.455 3.796 28.1777 3.872 27.9484 4.024C27.7217 4.176 27.5404 4.372 27.4044 4.612L26.8564 4.144C27.043 3.848 27.3017 3.604 27.6324 3.412C27.9657 3.21733 28.355 3.12 28.8004 3.12C29.0457 3.12 29.2817 3.15333 29.5084 3.22C29.7377 3.284 29.9404 3.38267 30.1164 3.516C30.295 3.64667 30.4364 3.81333 30.5404 4.016C30.6444 4.216 30.6964 4.45333 30.6964 4.728C30.6964 5.024 30.6337 5.28667 30.5084 5.516C30.383 5.74533 30.219 5.92267 30.0164 6.048C30.2964 6.14133 30.515 6.296 30.6724 6.512C30.8297 6.728 30.9084 7.008 30.9084 7.352C30.9084 7.712 30.8164 8.024 30.6324 8.288C30.451 8.552 30.1977 8.75733 29.8724 8.904C29.547 9.048 29.171 9.12 28.7444 9.12ZM32.9784 9.12C32.6558 9.12 32.3851 9.06133 32.1664 8.944C31.9504 8.824 31.7864 8.66667 31.6744 8.472C31.5651 8.27733 31.5104 8.064 31.5104 7.832C31.5104 7.60533 31.5531 7.40933 31.6384 7.244C31.7264 7.076 31.8491 6.93733 32.0064 6.828C32.1638 6.716 32.3518 6.628 32.5704 6.564C32.7758 6.508 33.0051 6.46 33.2584 6.42C33.5144 6.37733 33.7731 6.33867 34.0344 6.304C34.2958 6.26933 34.5398 6.236 34.7664 6.204L34.5104 6.352C34.5184 5.968 34.4411 5.684 34.2784 5.5C34.1184 5.316 33.8411 5.224 33.4464 5.224C33.1851 5.224 32.9558 5.284 32.7584 5.404C32.5638 5.52133 32.4264 5.71333 32.3464 5.98L31.6704 5.776C31.7744 5.39733 31.9758 5.1 32.2744 4.884C32.5731 4.668 32.9664 4.56 33.4544 4.56C33.8464 4.56 34.1824 4.63067 34.4624 4.772C34.7451 4.91067 34.9478 5.12133 35.0704 5.404C35.1318 5.53733 35.1704 5.68267 35.1864 5.84C35.2024 5.99467 35.2104 6.15733 35.2104 6.328V9H34.5784V7.964L34.7264 8.06C34.5638 8.40933 34.3358 8.67333 34.0424 8.852C33.7518 9.03067 33.3971 9.12 32.9784 9.12ZM33.0864 8.524C33.3424 8.524 33.5638 8.47867 33.7504 8.388C33.9398 8.29467 34.0918 8.17333 34.2064 8.024C34.3211 7.872 34.3958 7.70667 34.4304 7.528C34.4704 7.39467 34.4918 7.24667 34.4944 7.084C34.4998 6.91867 34.5024 6.792 34.5024 6.704L34.7504 6.812C34.5184 6.844 34.2904 6.87467 34.0664 6.904C33.8424 6.93333 33.6304 6.96533 33.4304 7C33.2304 7.032 33.0504 7.07067 32.8904 7.116C32.7731 7.15333 32.6624 7.20133 32.5584 7.26C32.4571 7.31867 32.3744 7.39467 32.3104 7.488C32.2491 7.57867 32.2184 7.692 32.2184 7.828C32.2184 7.94533 32.2478 8.05733 32.3064 8.164C32.3678 8.27067 32.4611 8.35733 32.5864 8.424C32.7144 8.49067 32.8811 8.524 33.0864 8.524ZM36.2504 9V4.68H39.2504V5.356H36.9624V9H36.2504ZM41.9922 9.12C41.5869 9.12 41.2456 9.02 40.9682 8.82C40.6909 8.61733 40.4802 8.344 40.3362 8C40.1949 7.65333 40.1242 7.26533 40.1242 6.836C40.1242 6.40133 40.1949 6.012 40.3362 5.668C40.4802 5.324 40.6909 5.05333 40.9682 4.856C41.2482 4.65867 41.5909 4.56 41.9962 4.56C42.3962 4.56 42.7402 4.66 43.0282 4.86C43.3189 5.05733 43.5416 5.328 43.6962 5.672C43.8509 6.016 43.9282 6.404 43.9282 6.836C43.9282 7.268 43.8509 7.656 43.6962 8C43.5416 8.344 43.3189 8.61733 43.0282 8.82C42.7402 9.02 42.3949 9.12 41.9922 9.12ZM40.0042 10.92V4.68H40.6402V7.86H40.7202V10.92H40.0042ZM41.9042 8.468C42.1896 8.468 42.4256 8.396 42.6122 8.252C42.7989 8.108 42.9389 7.91333 43.0322 7.668C43.1256 7.42 43.1722 7.14267 43.1722 6.836C43.1722 6.532 43.1256 6.25733 43.0322 6.012C42.9416 5.76667 42.8002 5.572 42.6082 5.428C42.4189 5.284 42.1776 5.212 41.8842 5.212C41.6042 5.212 41.3722 5.28133 41.1882 5.42C41.0042 5.556 40.8669 5.74667 40.7762 5.992C40.6856 6.23467 40.6402 6.516 40.6402 6.836C40.6402 7.15067 40.6842 7.432 40.7722 7.68C40.8629 7.92533 41.0016 8.11867 41.1882 8.26C41.3749 8.39867 41.6136 8.468 41.9042 8.468ZM45.2489 10.92L46.0849 8.648L46.0969 9.32L44.2089 4.68H44.9569L46.4369 8.412H46.1809L47.5689 4.68H48.2929L45.9409 10.92H45.2489ZM50.5016 9.12C50.0749 9.12 49.6976 9.028 49.3696 8.844C49.0416 8.65733 48.7829 8.40133 48.5936 8.076L49.1616 7.708C49.3189 7.94533 49.5069 8.128 49.7256 8.256C49.9442 8.38133 50.1936 8.444 50.4736 8.444C50.7669 8.444 51.0002 8.37733 51.1736 8.244C51.3469 8.108 51.4336 7.92533 51.4336 7.696C51.4336 7.52533 51.3909 7.39467 51.3056 7.304C51.2202 7.21333 51.0976 7.15067 50.9376 7.116C50.7776 7.08133 50.5869 7.064 50.3656 7.064H49.9176V6.476H50.3616C50.6416 6.476 50.8696 6.43067 51.0456 6.34C51.2216 6.24933 51.3096 6.09467 51.3096 5.876C51.3096 5.652 51.2269 5.48933 51.0616 5.388C50.8989 5.284 50.7042 5.232 50.4776 5.232C50.2376 5.232 50.0082 5.28267 49.7896 5.384C49.5709 5.48267 49.3829 5.608 49.2256 5.76L48.7936 5.276C49.0176 5.04667 49.2749 4.87067 49.5656 4.748C49.8589 4.62267 50.1776 4.56 50.5216 4.56C50.7989 4.56 51.0522 4.60933 51.2816 4.708C51.5136 4.804 51.6976 4.94667 51.8336 5.136C51.9722 5.32267 52.0416 5.55067 52.0416 5.82C52.0416 6.04933 51.9882 6.25333 51.8816 6.432C51.7749 6.61067 51.6176 6.76667 51.4096 6.9L51.3816 6.648C51.5576 6.69067 51.7029 6.76933 51.8176 6.884C51.9349 6.996 52.0216 7.12933 52.0776 7.284C52.1336 7.43867 52.1616 7.6 52.1616 7.768C52.1616 8.05067 52.0869 8.29333 51.9376 8.496C51.7909 8.696 51.5922 8.85067 51.3416 8.96C51.0909 9.06667 50.8109 9.12 50.5016 9.12ZM56.5755 4.68V9H55.8875V5.816L53.6235 9H53.0355V4.68H53.7235V7.82L55.9915 4.68H56.5755ZM58.8397 9V5.328H57.3357V4.68H61.0557V5.328H59.5517V9H58.8397ZM63.6849 9.12C63.2609 9.12 62.8903 9.02667 62.5729 8.84C62.2583 8.65067 62.0129 8.388 61.8369 8.052C61.6609 7.71333 61.5729 7.31867 61.5729 6.868C61.5729 6.396 61.6596 5.988 61.8329 5.644C62.0063 5.29733 62.2476 5.03067 62.5569 4.844C62.8689 4.65467 63.2343 4.56 63.6529 4.56C64.0876 4.56 64.4569 4.66 64.7609 4.86C65.0676 5.06 65.2969 5.34533 65.4489 5.716C65.6036 6.08667 65.6703 6.528 65.6489 7.04H64.9289V6.784C64.9209 6.25333 64.8129 5.85733 64.6049 5.596C64.3969 5.332 64.0876 5.2 63.6769 5.2C63.2369 5.2 62.9023 5.34133 62.6729 5.624C62.4436 5.90667 62.3289 6.312 62.3289 6.84C62.3289 7.34933 62.4436 7.744 62.6729 8.024C62.9023 8.304 63.2289 8.444 63.6529 8.444C63.9383 8.444 64.1863 8.37867 64.3969 8.248C64.6076 8.11733 64.7729 7.92933 64.8929 7.684L65.5769 7.92C65.4089 8.30133 65.1556 8.59733 64.8169 8.808C64.4809 9.016 64.1036 9.12 63.6849 9.12ZM62.0889 7.04V6.468H65.2809V7.04H62.0889ZM68.1371 9V4.68H69.9771C70.0864 4.68 70.2037 4.68667 70.3291 4.7C70.4571 4.71067 70.5731 4.73067 70.6771 4.76C70.9091 4.82133 71.0997 4.948 71.2491 5.14C71.4011 5.32933 71.4771 5.56933 71.4771 5.86C71.4771 6.02267 71.4517 6.164 71.4011 6.284C71.3531 6.404 71.2837 6.508 71.1931 6.596C71.1531 6.636 71.1091 6.672 71.0611 6.704C71.0131 6.736 70.9651 6.76133 70.9171 6.78C71.0104 6.796 71.1051 6.832 71.2011 6.888C71.3531 6.97067 71.4717 7.08667 71.5571 7.236C71.6451 7.38533 71.6891 7.576 71.6891 7.808C71.6891 8.10133 71.6184 8.344 71.4771 8.536C71.3357 8.72533 71.1411 8.856 70.8931 8.928C70.7891 8.95733 70.6744 8.97733 70.5491 8.988C70.4237 8.996 70.3024 9 70.1851 9H68.1371ZM68.8571 8.42H70.1451C70.2011 8.42 70.2677 8.41467 70.3451 8.404C70.4251 8.39333 70.4957 8.38 70.5571 8.364C70.6957 8.324 70.7957 8.24933 70.8571 8.14C70.9211 8.03067 70.9531 7.912 70.9531 7.784C70.9531 7.61333 70.9051 7.47467 70.8091 7.368C70.7157 7.26133 70.5917 7.19467 70.4371 7.168C70.3811 7.152 70.3197 7.14267 70.2531 7.14C70.1891 7.13733 70.1317 7.136 70.0811 7.136H68.8571V8.42ZM68.8571 6.548H69.9291C70.0037 6.548 70.0824 6.544 70.1651 6.536C70.2477 6.52533 70.3197 6.508 70.3811 6.484C70.5037 6.43867 70.5931 6.364 70.6491 6.26C70.7077 6.15333 70.7371 6.03733 70.7371 5.912C70.7371 5.77333 70.7051 5.652 70.6411 5.548C70.5797 5.44133 70.4851 5.368 70.3571 5.328C70.2717 5.296 70.1757 5.27867 70.0691 5.276C69.9651 5.27067 69.8984 5.268 69.8691 5.268H68.8571V6.548Z" fill="#FEFDF8" fill-opacity="0.5"/>
</svg>
