<svg width="100" height="100" viewBox="0 0 100 100" fill="none" xmlns="http://www.w3.org/2000/svg">
<path d="M27.5 42.5V33.5C27.5 32.9477 27.9477 32.5 28.5 32.5H91.5C92.0523 32.5 92.5 32.9477 92.5 33.5V42.5M27.5 42.5H92.5M27.5 42.5V52.5M92.5 42.5V52.5M27.5 52.5V79C27.5 79.5523 27.9477 80 28.5 80H91.5C92.0523 80 92.5 79.5523 92.5 79V52.5M27.5 52.5H92.5" stroke="#303030" stroke-width="4"/>
<circle cx="67.5" cy="67.5" r="4.5" stroke="#303030" stroke-width="4"/>
<circle cx="77.5" cy="67.5" r="4.5" stroke="#303030" stroke-width="4"/>
<path d="M7.5 32.5V23.5C7.5 22.9477 7.94772 22.5 8.5 22.5H71.5C72.0523 22.5 72.5 22.9477 72.5 23.5V32.5M7.5 32.5V42.5M7.5 32.5H30M7.5 42.5V69C7.5 69.5523 7.94772 70 8.5 70H27.5M7.5 42.5H28.75" stroke="#303030" stroke-width="4"/>
</svg>
