<svg width="100" height="100" viewBox="0 0 100 100" fill="none" xmlns="http://www.w3.org/2000/svg">
<path d="M85.4167 35H12.0833C9.55203 35 7.5 36.9588 7.5 39.375V48.125C7.5 50.5412 9.55203 52.5 12.0833 52.5H85.4167C87.948 52.5 90 50.5412 90 48.125V39.375C90 36.9588 87.948 35 85.4167 35Z" stroke="#303030" stroke-width="4" stroke-linecap="round" stroke-linejoin="round"/>
<path d="M50 35V92.5" stroke="#303030" stroke-width="4" stroke-linecap="round" stroke-linejoin="round"/>
<path d="M82.5 52.5V83.6111C82.5 85.9686 81.4841 88.2295 79.6757 89.8965C77.8673 91.5635 75.4146 92.5 72.8571 92.5H24.6429C22.0854 92.5 19.6327 91.5635 17.8243 89.8965C16.0159 88.2295 15 85.9686 15 83.6111V52.5" stroke="#303030" stroke-width="4" stroke-linecap="round" stroke-linejoin="round"/>
<path d="M27.0536 35C23.8568 35 20.7909 33.6832 18.5304 31.3392C16.2699 28.9952 15 25.816 15 22.5011C15 19.1862 16.2699 16.007 18.5304 13.663C20.7909 11.319 23.8568 10.0022 27.0536 10.0022C31.7047 9.91816 36.2626 12.2583 40.1328 16.7174C44.003 21.1765 47.006 27.5477 48.75 35C50.494 27.5477 53.497 21.1765 57.3672 16.7174C61.2374 12.2583 65.7953 9.91816 70.4464 10.0022C73.6432 10.0022 76.7091 11.319 78.9696 13.663C81.2301 16.007 82.5 19.1862 82.5 22.5011C82.5 25.816 81.2301 28.9952 78.9696 31.3392C76.7091 33.6832 73.6432 35 70.4464 35" stroke="#303030" stroke-width="4" stroke-linecap="round" stroke-linejoin="round"/>
</svg>
