<svg width="32" height="32" viewBox="0 0 32 32" fill="none" xmlns="http://www.w3.org/2000/svg">
<path d="M27.3333 11.2H3.86666C3.05664 11.2 2.39999 11.8268 2.39999 12.6V15.4C2.39999 16.1732 3.05664 16.8 3.86666 16.8H27.3333C28.1433 16.8 28.8 16.1732 28.8 15.4V12.6C28.8 11.8268 28.1433 11.2 27.3333 11.2Z" stroke="#FAA820" stroke-width="2" stroke-linecap="round" stroke-linejoin="round"/>
<path d="M16 11.2V29.6" stroke="#FAA820" stroke-width="2" stroke-linecap="round" stroke-linejoin="round"/>
<path d="M26.4 16.8V26.7555C26.4 27.5099 26.0749 28.2334 25.4962 28.7669C24.9175 29.3003 24.1327 29.6 23.3143 29.6H7.8857C7.06732 29.6 6.28246 29.3003 5.70377 28.7669C5.12509 28.2334 4.79999 27.5099 4.79999 26.7555V16.8" stroke="#FAA820" stroke-width="2" stroke-linecap="round" stroke-linejoin="round"/>
<path d="M8.65713 11.2C7.63415 11.2 6.65307 10.7786 5.92972 10.0285C5.20636 9.27846 4.79999 8.26114 4.79999 7.20036C4.79999 6.13959 5.20636 5.12226 5.92972 4.37218C6.65307 3.6221 7.63415 3.20071 8.65713 3.20071C10.1455 3.17382 11.604 3.92266 12.8425 5.34958C14.081 6.7765 15.0419 8.81527 15.6 11.2C16.1581 8.81527 17.119 6.7765 18.3575 5.34958C19.5959 3.92266 21.0545 3.17382 22.5428 3.20071C23.5658 3.20071 24.5469 3.6221 25.2703 4.37218C25.9936 5.12226 26.4 6.13959 26.4 7.20036C26.4 8.26114 25.9936 9.27846 25.2703 10.0285C24.5469 10.7786 23.5658 11.2 22.5428 11.2" stroke="#FAA820" stroke-width="2" stroke-linecap="round" stroke-linejoin="round"/>
</svg>
