<svg width="100" height="100" viewBox="0 0 100 100" fill="none" xmlns="http://www.w3.org/2000/svg">
<path d="M50 70.8333C52.3012 70.8333 54.1667 68.9679 54.1667 66.6667C54.1667 64.3655 52.3012 62.5 50 62.5C47.6989 62.5 45.8334 64.3655 45.8334 66.6667C45.8334 68.9679 47.6989 70.8333 50 70.8333Z" stroke="#FEFDF8" stroke-width="4" stroke-linecap="round" stroke-linejoin="round"/>
<path d="M77.2222 42.5H22.7778C18.4822 42.5 15 46.231 15 50.8333V84.1667C15 88.769 18.4822 92.5 22.7778 92.5H77.2222C81.5178 92.5 85 88.769 85 84.1667V50.8333C85 46.231 81.5178 42.5 77.2222 42.5Z" stroke="#FEFDF8" stroke-width="4" stroke-linecap="round" stroke-linejoin="round"/>
<path d="M29.1666 41.6667V29.1667C29.1666 23.6414 31.3616 18.3423 35.2686 14.4353C39.1756 10.5283 44.4746 8.33337 50 8.33337C55.5253 8.33337 60.8243 10.5283 64.7314 14.4353C68.6384 18.3423 70.8333 23.6414 70.8333 29.1667V41.6667" stroke="#FEFDF8" stroke-width="4" stroke-linecap="round" stroke-linejoin="round"/>
</svg>
