<svg width="54" height="42" viewBox="0 0 54 42" fill="none" xmlns="http://www.w3.org/2000/svg">
<path fill-rule="evenodd" clip-rule="evenodd" d="M15.5704 36.8501V38.9916V41.133H14.6329V40.6131C14.3356 40.9987 13.8844 41.2407 13.2711 41.2407C12.0621 41.2407 11.1143 40.3002 11.1143 38.9916C11.1143 37.6839 12.0621 36.7424 13.2711 36.7424C13.8844 36.7424 14.3356 36.9845 14.6329 37.3701V36.8501H15.5704ZM13.3878 37.6203C12.5763 37.6203 12.0797 38.2388 12.0797 38.9916C12.0797 39.7444 12.5763 40.3628 13.3878 40.3628C14.1631 40.3628 14.6866 39.771 14.6866 38.9916C14.6866 38.2121 14.1631 37.6203 13.3878 37.6203ZM47.2498 38.9916C47.2498 38.2388 47.7464 37.6203 48.5579 37.6203C49.3343 37.6203 49.8567 38.2121 49.8567 38.9916C49.8567 39.771 49.3343 40.3628 48.5579 40.3628C47.7464 40.3628 47.2498 39.7444 47.2498 38.9916ZM50.7415 35.1302V38.9916V41.133H49.803V40.6131C49.5057 40.9987 49.0545 41.2407 48.4412 41.2407C47.2322 41.2407 46.2845 40.3002 46.2845 38.9916C46.2845 37.6839 47.2322 36.7424 48.4412 36.7424C49.0545 36.7424 49.5057 36.9845 49.803 37.3701V35.1302H50.7415ZM27.207 37.5762C27.811 37.5762 28.1992 37.9526 28.2983 38.6152H26.061C26.1611 37.9967 26.539 37.5762 27.207 37.5762ZM25.0781 38.9916C25.0781 37.6562 25.9619 36.7424 27.2256 36.7424C28.4335 36.7424 29.2636 37.6562 29.2729 38.9916C29.2729 39.1167 29.2636 39.2336 29.2543 39.3495H26.0527C26.188 40.1208 26.7382 40.3987 27.3422 40.3987C27.7748 40.3987 28.2353 40.2367 28.5966 39.9505L29.0561 40.6407C28.5326 41.0797 27.9379 41.2407 27.2885 41.2407C25.998 41.2407 25.0781 40.3536 25.0781 38.9916ZM38.5453 38.9916C38.5453 38.2388 39.0419 37.6203 39.8534 37.6203C40.6287 37.6203 41.1522 38.2121 41.1522 38.9916C41.1522 39.771 40.6287 40.3628 39.8534 40.3628C39.0419 40.3628 38.5453 39.7444 38.5453 38.9916ZM42.036 36.8501V38.9916V41.133H41.0985V40.6131C40.8001 40.9987 40.35 41.2407 39.7367 41.2407C38.5277 41.2407 37.58 40.3002 37.58 38.9916C37.58 37.6839 38.5277 36.7424 39.7367 36.7424C40.35 36.7424 40.8001 36.9845 41.0985 37.3701V36.8501H42.036ZM33.2509 38.9916C33.2509 40.291 34.1615 41.2407 35.5511 41.2407C36.2005 41.2407 36.6331 41.0971 37.1019 40.73L36.6517 39.9772C36.2997 40.2285 35.93 40.3628 35.5233 40.3628C34.7747 40.3536 34.2245 39.8162 34.2245 38.9916C34.2245 38.167 34.7747 37.6296 35.5233 37.6203C35.93 37.6203 36.2997 37.7547 36.6517 38.006L37.1019 37.2532C36.6331 36.886 36.2005 36.7424 35.5511 36.7424C34.1615 36.7424 33.2509 37.6921 33.2509 38.9916ZM44.2008 37.3701C44.4445 36.9937 44.7965 36.7424 45.3375 36.7424C45.5275 36.7424 45.798 36.7783 46.0055 36.8593L45.7164 37.7373C45.5182 37.6562 45.32 37.6296 45.13 37.6296C44.5168 37.6296 44.2101 38.0234 44.2101 38.7321V41.133H43.2716V36.8501H44.2008V37.3701ZM20.207 37.1906C19.7558 36.8952 19.1343 36.7424 18.4487 36.7424C17.3564 36.7424 16.6533 37.2624 16.6533 38.1137C16.6533 38.8121 17.1768 39.2428 18.1411 39.3772L18.584 39.4398C19.0981 39.5116 19.3407 39.6459 19.3407 39.888C19.3407 40.2192 18.998 40.4079 18.3579 40.4079C17.7085 40.4079 17.2397 40.2018 16.9238 39.9597L16.4819 40.6848C16.9961 41.0612 17.6455 41.2407 18.3486 41.2407C19.5937 41.2407 20.3154 40.6582 20.3154 39.8428C20.3154 39.09 19.7475 38.6962 18.809 38.5618L18.3672 38.4983C17.9614 38.4449 17.6362 38.3649 17.6362 38.0778C17.6362 37.7639 17.9428 37.5762 18.457 37.5762C19.0073 37.5762 19.54 37.7824 19.8012 37.9434L20.207 37.1906ZM31.1674 37.3701C31.4101 36.9937 31.7621 36.7424 32.3031 36.7424C32.4931 36.7424 32.7636 36.7783 32.9711 36.8593L32.682 37.7373C32.4838 37.6562 32.2856 37.6296 32.0956 37.6296C31.4823 37.6296 31.1757 38.0234 31.1757 38.7321V41.133H30.2382V36.8501H31.1674V37.3701ZM24.3026 36.8501H22.7694V35.5507H21.8216V36.8501H20.9471V37.7014H21.8216V39.6551C21.8216 40.6489 22.2098 41.2407 23.3187 41.2407C23.7254 41.2407 24.1942 41.1156 24.4915 40.9095L24.221 40.1115C23.9412 40.2726 23.6346 40.3536 23.3909 40.3536C22.9222 40.3536 22.7694 40.0664 22.7694 39.6367V37.7014H24.3026V36.8501ZM10.2852 38.4449V41.133H9.33746V38.7495C9.33746 38.0234 9.03082 37.6203 8.39071 37.6203C7.76815 37.6203 7.33556 38.0152 7.33556 38.7588V41.133H6.38778V38.7495C6.38778 38.0234 6.07288 37.6203 5.45032 37.6203C4.80918 37.6203 4.39414 38.0152 4.39414 38.7588V41.133H3.44739L3.44739 36.8501H4.38588L4.38588 37.3783C4.73794 36.8768 5.18808 36.7424 5.64855 36.7424C6.30725 36.7424 6.77597 37.0296 7.07332 37.5045C7.47081 36.9035 8.03865 36.7332 8.58894 36.7424C9.63583 36.7517 10.2852 37.4327 10.2852 38.4449Z" fill="#FEFDF8"/>
<path d="M34.1047 29.5727H19.8962V4.20752H34.1047V29.5727Z" fill="#FEFDF8" fill-opacity="0.8"/>
<path d="M20.7976 16.8903C20.7976 11.7448 23.2228 7.1614 26.9995 4.20766C24.2377 2.04774 20.7522 0.75856 16.9642 0.75856C7.9964 0.75856 0.72699 7.98086 0.72699 16.8903C0.72699 25.7997 7.9964 33.022 16.9642 33.022C20.7522 33.022 24.2377 31.7328 26.9995 29.5729C23.2228 26.6191 20.7976 22.0357 20.7976 16.8903Z" fill="#FEFDF8"/>
<path d="M53.2731 16.8903C53.2731 25.7997 46.0036 33.022 37.0359 33.022C33.2478 33.022 29.7623 31.7328 26.9995 29.5729C30.7772 26.6191 33.2024 22.0357 33.2024 16.8903C33.2024 11.7448 30.7772 7.1614 26.9995 4.20766C29.7623 2.04774 33.2478 0.75856 37.0359 0.75856C46.0036 0.75856 53.2731 7.98086 53.2731 16.8903Z" fill="#ABABA8"/>
</svg>
