<svg width="70" height="20" viewBox="0 0 70 20" fill="none" xmlns="http://www.w3.org/2000/svg">
<path fill-rule="evenodd" clip-rule="evenodd" d="M7.1287 0.630287L7.1287 0.630287C7.81846 0.618534 9.50414 0.589811 10.2386 3.07171C10.7586 4.82853 11.5868 7.7063 12.7233 11.705H13.1861C14.4049 7.48929 15.2421 4.61152 15.6978 3.07171C16.431 0.594153 18.1983 0.618441 19.0552 0.630219C19.1098 0.630969 19.1606 0.631668 19.2073 0.631668L25.2243 0.631675V19.3711H19.0916V8.32765H18.6804L15.2617 19.3711H10.6476L7.22898 8.31947H6.81774V19.3711H0.685059V0.631675L7.03147 0.631616C7.06114 0.631439 7.09363 0.630885 7.1287 0.630287ZM34.0308 0.631676V11.6834H34.52L38.6785 2.59564C39.4858 0.787156 41.2062 0.631676 41.2062 0.631676H47.1408V19.3712H40.8801V8.31947H40.3908L36.3139 17.4072C35.5066 19.2075 33.7046 19.3712 33.7046 19.3712H27.77V0.631676H34.0308ZM62.1284 13.789C65.1648 13.789 67.9073 12.0145 68.7806 9.5368H49.6091V19.3712H55.5628V13.789H62.1284Z" fill="#FEFDF8"/>
<path d="M62.4157 0.631836H49.2971C49.6093 4.80388 53.1979 8.37543 56.9128 8.37543H69.1945C69.9032 4.90797 67.4634 0.631836 62.4157 0.631836Z" fill="#ABABA8"/>
</svg>
