<svg width="100" height="100" viewBox="0 0 100 100" fill="none" xmlns="http://www.w3.org/2000/svg">
<path d="M35.016 62.9112L36.2919 61.371L36.2919 61.371L35.016 62.9112ZM63.5 70.6429V72.6429H64.0824L64.5738 72.3302L63.5 70.6429ZM45.2857 68.6429C44.1811 68.6429 43.2857 69.5383 43.2857 70.6429C43.2857 71.7474 44.1811 72.6429 45.2857 72.6429V68.6429ZM85.592 56.5843L84.5183 54.897L84.5183 54.897L85.592 56.5843ZM91.7328 66.6961L92.7348 68.4269L91.7328 66.6961ZM51.5896 89.9369L50.5875 88.206L50.5875 88.206L51.5896 89.9369ZM93.5016 58.0259L91.9016 59.2259L91.9016 59.2259L93.5016 58.0259ZM18.6177 62.2067C20.438 60.729 26.4172 58.3854 33.7402 64.4514L36.2919 61.371C27.4473 54.0446 19.3437 56.4652 16.0966 59.1012L18.6177 62.2067ZM35.67 65.1512H62.5V61.1512H35.67V65.1512ZM61.5 64.1512V70.6429H65.5V64.1512H61.5ZM63.5 68.6429H45.2857V72.6429H63.5V68.6429ZM64.5738 72.3302L86.6658 58.2717L84.5183 54.897L62.4262 68.9556L64.5738 72.3302ZM90.7307 64.9652L50.5875 88.206L52.5917 91.6677L92.7348 68.4269L90.7307 64.9652ZM51.0886 88.0714H17.3571V92.0714H51.0886V88.0714ZM86.6658 58.2717C88.3923 57.1729 90.6737 57.5888 91.9016 59.2259L95.1016 56.8259C92.6196 53.5166 88.0082 52.6762 84.5183 54.897L86.6658 58.2717ZM50.5875 88.206C50.7398 88.1179 50.9126 88.0714 51.0886 88.0714V92.0714C51.6164 92.0714 52.1349 91.9322 52.5917 91.6677L50.5875 88.206ZM62.5 65.1512C61.9477 65.1512 61.5 64.7035 61.5 64.1512H65.5C65.5 62.4943 64.1569 61.1512 62.5 61.1512V65.1512ZM91.9016 59.2259C93.3097 61.1034 92.7617 63.7894 90.7307 64.9652L92.7348 68.4269C96.8403 66.0501 97.9479 60.621 95.1016 56.8259L91.9016 59.2259ZM33.7402 64.4514C34.2632 64.8846 34.9424 65.1512 35.67 65.1512V61.1512C35.922 61.1512 36.1351 61.2412 36.2919 61.371L33.7402 64.4514Z" fill="#FEFDF8"/>
<path d="M8.64285 94.5H13.9286C15.5854 94.5 16.9286 93.1568 16.9286 91.5V57.0714C16.9286 55.4146 15.5854 54.0714 13.9286 54.0714H8.64285C6.986 54.0714 5.64285 55.4146 5.64285 57.0714V91.5C5.64285 93.1568 6.98599 94.5 8.64285 94.5Z" stroke="#FEFDF8" stroke-width="4"/>
<path d="M51.3571 45.9286C60.5093 45.9286 67.9286 38.5093 67.9286 29.3571C67.9286 20.205 60.5093 12.7857 51.3571 12.7857C42.205 12.7857 34.7857 20.205 34.7857 29.3571C34.7857 38.5093 42.205 45.9286 51.3571 45.9286Z" stroke="#FEFDF8" stroke-width="4"/>
<path d="M51.3571 53.2143C64.5331 53.2143 75.2143 42.5331 75.2143 29.3571C75.2143 16.1812 64.5331 5.5 51.3571 5.5C38.1812 5.5 27.5 16.1812 27.5 29.3571C27.5 42.5331 38.1812 53.2143 51.3571 53.2143Z" stroke="#FEFDF8" stroke-width="4"/>
<path d="M44.0714 31.878V29.1265H53.1276C53.27 29.1265 53.4437 29.122 53.6485 29.1131C53.8622 29.0953 54.0982 29.0508 54.3564 28.9795C55.0955 28.7747 55.6298 28.4052 55.9593 27.8709C56.2887 27.3277 56.4535 26.6955 56.4535 25.9742C56.4535 25.5378 56.3867 25.1015 56.2531 24.6652C56.1285 24.2199 55.9103 23.8281 55.5986 23.4897C55.2959 23.1514 54.8818 22.9154 54.3564 22.7818C54.1249 22.7195 53.8889 22.6839 53.6485 22.675C53.417 22.666 53.2433 22.6616 53.1276 22.6616H48.0919V19.6429H53.2611C53.3591 19.6429 53.5505 19.6473 53.8355 19.6562C54.1293 19.6651 54.4544 19.6963 54.8106 19.7497C55.9147 19.9189 56.8275 20.2885 57.5488 20.8584C58.279 21.4283 58.8177 22.1496 59.165 23.0222C59.5212 23.886 59.6993 24.8388 59.6993 25.8807C59.6993 27.4746 59.2941 28.7925 58.4838 29.8344C57.6734 30.8762 56.449 31.5218 54.8106 31.7712C54.4544 31.8157 54.1293 31.8469 53.8355 31.8647C53.5505 31.8736 53.3591 31.878 53.2611 31.878H44.0714ZM44.0714 36.2592V33.7347H55.4651V36.2592H44.0714ZM45.9815 38.8772V19.6429H49.2006V38.8772H45.9815Z" fill="#FEFDF8"/>
</svg>
