<svg width="100" height="100" viewBox="0 0 100 100" fill="none" xmlns="http://www.w3.org/2000/svg">
<path d="M18.75 68.75C12.5 74 10.4167 89.5833 10.4167 89.5833C10.4167 89.5833 26 87.5 31.25 81.25C34.2083 77.75 34.1667 72.375 30.875 69.125C29.2554 67.5792 27.122 66.686 24.8843 66.6168C22.6465 66.5476 20.462 67.3072 18.75 68.75Z" stroke="#303030" stroke-width="4" stroke-linecap="round" stroke-linejoin="round"/>
<path d="M50 62.5L37.5 50C39.7173 44.2476 42.5092 38.7336 45.8333 33.5416C50.6883 25.7791 57.4484 19.3877 65.4708 14.9754C73.4932 10.563 82.5111 8.27652 91.6667 8.33331C91.6667 19.6666 88.4167 39.5833 66.6667 54.1666C61.4037 57.4947 55.8202 60.2864 50 62.5Z" stroke="#303030" stroke-width="4" stroke-linecap="round" stroke-linejoin="round"/>
<path d="M37.5 50H16.6667C16.6667 50 18.9583 37.375 25 33.3334C31.75 28.8334 45.8333 33.3334 45.8333 33.3334" stroke="#303030" stroke-width="4" stroke-linecap="round" stroke-linejoin="round"/>
<path d="M50 62.5V83.3333C50 83.3333 62.625 81.0416 66.6667 75C71.1667 68.25 66.6667 54.1666 66.6667 54.1666" stroke="#303030" stroke-width="4" stroke-linecap="round" stroke-linejoin="round"/>
</svg>
