<svg width="32" height="32" viewBox="0 0 32 32" fill="none" xmlns="http://www.w3.org/2000/svg">
<path d="M9.88639 18.2116L21.6223 28.5376C21.7579 28.6577 21.9224 28.7404 22.0997 28.7777C22.277 28.8149 22.4609 28.8054 22.6334 28.7501C22.8059 28.6948 22.961 28.5956 23.0836 28.4622C23.2061 28.3288 23.2919 28.1659 23.3324 27.9893L28.2409 6.554C28.282 6.3694 28.2723 6.17708 28.2127 5.99759C28.1531 5.81809 28.0458 5.65815 27.9024 5.53485C27.759 5.41154 27.5848 5.32949 27.3984 5.29746C27.212 5.26543 27.0204 5.28463 26.844 5.35299L2.74563 14.8174C1.77961 15.196 1.91015 16.6059 2.92839 16.8148L9.88639 18.2116Z" stroke="#FAA820" stroke-width="2" stroke-linecap="round" stroke-linejoin="round"/>
<path d="M9.88638 18.2116L27.6534 5.37912" stroke="#FAA820" stroke-width="2" stroke-linecap="round" stroke-linejoin="round"/>
<path d="M15.7478 23.3681L11.6748 27.441C11.5295 27.5886 11.3436 27.6896 11.1408 27.7313C10.9379 27.7729 10.7273 27.7533 10.5356 27.675C10.3439 27.5966 10.1798 27.463 10.0642 27.2912C9.94863 27.1194 9.88673 26.9171 9.88638 26.71V18.2116" stroke="#FAA820" stroke-width="2" stroke-linecap="round" stroke-linejoin="round"/>
</svg>
