<svg width="101" height="100" viewBox="0 0 101 100" fill="none" xmlns="http://www.w3.org/2000/svg">
<path d="M29.6666 41.6666V91.6666" stroke="#303030" stroke-width="4" stroke-linecap="round" stroke-linejoin="round"/>
<path d="M63 24.5L58.8334 41.6667H83.125C84.4187 41.6667 85.6947 41.9679 86.8518 42.5465C88.0089 43.125 89.0155 43.9651 89.7917 45C90.5679 46.035 91.0925 47.2365 91.3239 48.5093C91.5554 49.7822 91.4873 51.0914 91.125 52.3334L81.4167 85.6667C80.9118 87.3977 79.8592 88.9182 78.4167 90C76.9742 91.0819 75.2198 91.6667 73.4167 91.6667H17.1667C14.9566 91.6667 12.837 90.7887 11.2742 89.2259C9.71135 87.6631 8.83337 85.5435 8.83337 83.3334V50C8.83337 47.7899 9.71135 45.6703 11.2742 44.1075C12.837 42.5447 14.9566 41.6667 17.1667 41.6667H28.6667C30.2171 41.6659 31.7364 41.2326 33.054 40.4155C34.3716 39.5985 35.4351 38.4301 36.125 37.0417L50.5 8.33337C52.4649 8.35771 54.3989 8.82575 56.1576 9.70252C57.9162 10.5793 59.4539 11.8422 60.6559 13.3967C61.8579 14.9513 62.693 16.7574 63.0989 18.68C63.5049 20.6027 63.471 22.5923 63 24.5Z" stroke="#303030" stroke-width="4" stroke-linecap="round" stroke-linejoin="round"/>
</svg>
