<svg width="118" height="92" viewBox="0 0 118 92" fill="none" xmlns="http://www.w3.org/2000/svg">
<g filter="url(#filter0_d_35_965)">
<rect x="11" y="11" width="90" height="64" rx="2" fill="white"/>
<mask id="mask0_35_965" style="mask-type:luminance" maskUnits="userSpaceOnUse" x="11" y="11" width="90" height="64">
<rect x="11" y="11" width="90" height="64" rx="2" fill="white"/>
</mask>
<g mask="url(#mask0_35_965)">
<path fill-rule="evenodd" clip-rule="evenodd" d="M101 11H11V15.2667H101V11ZM101 19.5333H11V23.8H101V19.5333ZM11 28.0667H101V32.3333H11V28.0667ZM101 36.6H11V40.8667H101V36.6ZM11 45.1333H101V49.4H11V45.1333ZM101 53.6667H11V57.9333H101V53.6667ZM11 62.2H101V66.4667H11V62.2ZM101 70.7333H11V75H101V70.7333Z" fill="#D02F44"/>
<rect x="11" y="11" width="38.5714" height="29.8667" fill="#46467F"/>
<g filter="url(#filter1_d_35_965)">
<path fill-rule="evenodd" clip-rule="evenodd" d="M19.5714 17.3999C19.5714 18.5781 18.612 19.5333 17.4286 19.5333C16.2451 19.5333 15.2857 18.5781 15.2857 17.3999C15.2857 16.2217 16.2451 15.2666 17.4286 15.2666C18.612 15.2666 19.5714 16.2217 19.5714 17.3999ZM28.1428 17.3999C28.1428 18.5781 27.1835 19.5333 26 19.5333C24.8165 19.5333 23.8571 18.5781 23.8571 17.3999C23.8571 16.2217 24.8165 15.2666 26 15.2666C27.1835 15.2666 28.1428 16.2217 28.1428 17.3999ZM34.5714 19.5333C35.7549 19.5333 36.7143 18.5781 36.7143 17.3999C36.7143 16.2217 35.7549 15.2666 34.5714 15.2666C33.388 15.2666 32.4286 16.2217 32.4286 17.3999C32.4286 18.5781 33.388 19.5333 34.5714 19.5333ZM45.2857 17.3999C45.2857 18.5781 44.3263 19.5333 43.1428 19.5333C41.9594 19.5333 41 18.5781 41 17.3999C41 16.2217 41.9594 15.2666 43.1428 15.2666C44.3263 15.2666 45.2857 16.2217 45.2857 17.3999ZM21.7143 23.7999C22.8977 23.7999 23.8571 22.8448 23.8571 21.6666C23.8571 20.4884 22.8977 19.5333 21.7143 19.5333C20.5308 19.5333 19.5714 20.4884 19.5714 21.6666C19.5714 22.8448 20.5308 23.7999 21.7143 23.7999ZM32.4286 21.6666C32.4286 22.8448 31.4692 23.7999 30.2857 23.7999C29.1022 23.7999 28.1428 22.8448 28.1428 21.6666C28.1428 20.4884 29.1022 19.5333 30.2857 19.5333C31.4692 19.5333 32.4286 20.4884 32.4286 21.6666ZM38.8571 23.7999C40.0406 23.7999 41 22.8448 41 21.6666C41 20.4884 40.0406 19.5333 38.8571 19.5333C37.6737 19.5333 36.7143 20.4884 36.7143 21.6666C36.7143 22.8448 37.6737 23.7999 38.8571 23.7999ZM45.2857 25.9333C45.2857 27.1115 44.3263 28.0666 43.1428 28.0666C41.9594 28.0666 41 27.1115 41 25.9333C41 24.7551 41.9594 23.7999 43.1428 23.7999C44.3263 23.7999 45.2857 24.7551 45.2857 25.9333ZM34.5714 28.0666C35.7549 28.0666 36.7143 27.1115 36.7143 25.9333C36.7143 24.7551 35.7549 23.7999 34.5714 23.7999C33.388 23.7999 32.4286 24.7551 32.4286 25.9333C32.4286 27.1115 33.388 28.0666 34.5714 28.0666ZM28.1428 25.9333C28.1428 27.1115 27.1835 28.0666 26 28.0666C24.8165 28.0666 23.8571 27.1115 23.8571 25.9333C23.8571 24.7551 24.8165 23.7999 26 23.7999C27.1835 23.7999 28.1428 24.7551 28.1428 25.9333ZM17.4286 28.0666C18.612 28.0666 19.5714 27.1115 19.5714 25.9333C19.5714 24.7551 18.612 23.7999 17.4286 23.7999C16.2451 23.7999 15.2857 24.7551 15.2857 25.9333C15.2857 27.1115 16.2451 28.0666 17.4286 28.0666ZM23.8571 30.1999C23.8571 31.3781 22.8977 32.3333 21.7143 32.3333C20.5308 32.3333 19.5714 31.3781 19.5714 30.1999C19.5714 29.0217 20.5308 28.0666 21.7143 28.0666C22.8977 28.0666 23.8571 29.0217 23.8571 30.1999ZM30.2857 32.3333C31.4692 32.3333 32.4286 31.3781 32.4286 30.1999C32.4286 29.0217 31.4692 28.0666 30.2857 28.0666C29.1022 28.0666 28.1428 29.0217 28.1428 30.1999C28.1428 31.3781 29.1022 32.3333 30.2857 32.3333ZM41 30.1999C41 31.3781 40.0406 32.3333 38.8571 32.3333C37.6737 32.3333 36.7143 31.3781 36.7143 30.1999C36.7143 29.0217 37.6737 28.0666 38.8571 28.0666C40.0406 28.0666 41 29.0217 41 30.1999ZM43.1428 36.5999C44.3263 36.5999 45.2857 35.6448 45.2857 34.4666C45.2857 33.2884 44.3263 32.3333 43.1428 32.3333C41.9594 32.3333 41 33.2884 41 34.4666C41 35.6448 41.9594 36.5999 43.1428 36.5999ZM36.7143 34.4666C36.7143 35.6448 35.7549 36.5999 34.5714 36.5999C33.388 36.5999 32.4286 35.6448 32.4286 34.4666C32.4286 33.2884 33.388 32.3333 34.5714 32.3333C35.7549 32.3333 36.7143 33.2884 36.7143 34.4666ZM26 36.5999C27.1835 36.5999 28.1428 35.6448 28.1428 34.4666C28.1428 33.2884 27.1835 32.3333 26 32.3333C24.8165 32.3333 23.8571 33.2884 23.8571 34.4666C23.8571 35.6448 24.8165 36.5999 26 36.5999ZM19.5714 34.4666C19.5714 35.6448 18.612 36.5999 17.4286 36.5999C16.2451 36.5999 15.2857 35.6448 15.2857 34.4666C15.2857 33.2884 16.2451 32.3333 17.4286 32.3333C18.612 32.3333 19.5714 33.2884 19.5714 34.4666Z" fill="url(#paint0_linear_35_965)"/>
</g>
</g>
</g>
<defs>
<filter id="filter0_d_35_965" x="0" y="0" width="118" height="92" filterUnits="userSpaceOnUse" color-interpolation-filters="sRGB">
<feFlood flood-opacity="0" result="BackgroundImageFix"/>
<feColorMatrix in="SourceAlpha" type="matrix" values="0 0 0 0 0 0 0 0 0 0 0 0 0 0 0 0 0 0 127 0" result="hardAlpha"/>
<feMorphology radius="6" operator="dilate" in="SourceAlpha" result="effect1_dropShadow_35_965"/>
<feOffset dx="3" dy="3"/>
<feGaussianBlur stdDeviation="4"/>
<feColorMatrix type="matrix" values="0 0 0 0 0.878431 0 0 0 0 0.87451 0 0 0 0 0.854902 0 0 0 1 0"/>
<feBlend mode="normal" in2="BackgroundImageFix" result="effect1_dropShadow_35_965"/>
<feBlend mode="normal" in="SourceGraphic" in2="effect1_dropShadow_35_965" result="shape"/>
</filter>
<filter id="filter1_d_35_965" x="15.2857" y="15.2666" width="29.9999" height="22.3333" filterUnits="userSpaceOnUse" color-interpolation-filters="sRGB">
<feFlood flood-opacity="0" result="BackgroundImageFix"/>
<feColorMatrix in="SourceAlpha" type="matrix" values="0 0 0 0 0 0 0 0 0 0 0 0 0 0 0 0 0 0 127 0" result="hardAlpha"/>
<feOffset dy="1"/>
<feColorMatrix type="matrix" values="0 0 0 0 0 0 0 0 0 0 0 0 0 0 0 0 0 0 0.06 0"/>
<feBlend mode="normal" in2="BackgroundImageFix" result="effect1_dropShadow_35_965"/>
<feBlend mode="normal" in="SourceGraphic" in2="effect1_dropShadow_35_965" result="shape"/>
</filter>
<linearGradient id="paint0_linear_35_965" x1="15.2857" y1="15.2666" x2="15.2857" y2="36.5999" gradientUnits="userSpaceOnUse">
<stop stop-color="white"/>
<stop offset="1" stop-color="#F0F0F0"/>
</linearGradient>
</defs>
</svg>
