<svg width="70" height="22" viewBox="0 0 70 22" fill="none" xmlns="http://www.w3.org/2000/svg">
<path d="M30.3974 21.1829H24.8049L28.3029 0.881836H33.8951L30.3974 21.1829Z" fill="#FEFDF8"/>
<path d="M50.6703 1.37846C49.5672 0.967693 47.8176 0.51416 45.6543 0.51416C40.1315 0.51416 36.2424 3.27841 36.2186 7.23046C36.1727 10.1463 39.003 11.7658 41.1199 12.738C43.2836 13.7315 44.0191 14.3799 44.0191 15.2654C43.9971 16.6255 42.2707 17.2524 40.6606 17.2524C38.4278 17.2524 37.2314 16.9292 35.4133 16.1725L34.6769 15.8481L33.8943 20.4053C35.206 20.9662 37.6226 21.4639 40.1315 21.4857C45.9995 21.4857 49.8198 18.7642 49.8651 14.5527C49.8874 12.2417 48.3929 10.4709 45.1708 9.02392C43.2148 8.09504 42.0169 7.46871 42.0169 6.5183C42.0398 5.65429 43.0301 4.76933 45.2381 4.76933C47.0561 4.72598 48.392 5.13617 49.4039 5.54665L49.9097 5.76222L50.6703 1.37846Z" fill="#FEFDF8"/>
<path fill-rule="evenodd" clip-rule="evenodd" d="M60.6811 0.881836H65.0069L69.5186 21.1826H64.3405C64.3405 21.1826 63.8337 18.85 63.6732 18.1373H56.4929C56.2852 18.677 55.3191 21.1826 55.3191 21.1826H49.4511L57.758 2.56622C58.3336 1.24868 59.3471 0.881836 60.6811 0.881836ZM60.3365 8.31087C60.3365 8.31087 58.5643 12.8247 58.1037 13.9909H62.7522C62.5222 12.9759 61.4631 8.11654 61.4631 8.11654L61.0723 6.36728C60.9077 6.81773 60.6697 7.43702 60.5092 7.85472C60.4003 8.13787 60.3271 8.32838 60.3365 8.31087Z" fill="#FEFDF8"/>
<path fill-rule="evenodd" clip-rule="evenodd" d="M0.573436 0.881836H9.57122C10.7908 0.924606 11.7804 1.29174 12.1025 2.58832L14.0577 11.9149C14.058 11.9158 14.0583 11.9167 14.0586 11.9176L14.6571 14.7252L20.134 0.881836H26.0476L17.2571 21.1613H11.3432L6.35865 3.5216C4.6388 2.57782 2.67596 1.81877 0.481384 1.29202L0.573436 0.881836Z" fill="#FEFDF8"/>
</svg>
